# xmcd
#
# Track frame offsets: 
#        150
#        15244
#        31545
#        45535
#        58126
#
# Disc length: 975 seconds
#
# Revision: 0
# Processed by: cddbd v1.5.2PL0 Copyright (c) Steve Scherf et al.
# Submitted via: ExactAudioCopy v0.95a5
#
DISCID=2d03cd05
DTITLE=Verdrengungskünstler - Die Wiedergeburt Der Geschmeidomatik
DYEAR=2000
DGENRE=A Cappella
TTITLE0=Ist Es Dir Das Wert
TTITLE1=Schätzchen
TTITLE2=Bist Du Glücklich
TTITLE3=Gib Mir Die Nummer
TTITLE4=Selbstbewußtseinssong
EXTD=
EXTT0=
EXTT1=
EXTT2=
EXTT3=
EXTT4=
PLAYORDER=
